<?xml version="1.0" encoding="UTF-8"?>
<svg enable-background="new 0 0 455.731 455.731" version="1.1" viewBox="0 0 455.73 455.73" xml:space="preserve" xmlns="http://www.w3.org/2000/svg">
	<rect width="455.73" height="455.73" fill="#61A8DE"/>
	<path d="m358.84 100.6-304.75 118.76c-9.871 3.847-9.273 18.012 0.888 21.012l77.441 22.868 28.901 91.706c3.019 9.579 15.158 12.483 22.185 5.308l40.039-40.882 78.56 57.665c9.614 7.057 23.306 1.814 25.747-9.859l52.031-248.76c2.548-12.185-9.44-22.337-21.039-17.817zm-38.208 55.206-141.56 125.18c-1.411 1.248-2.309 2.975-2.519 4.847l-5.45 48.448c-0.178 1.58-2.389 1.789-2.861 0.271l-22.423-72.253c-1.027-3.308 0.312-6.892 3.255-8.717l167.16-103.68c3.844-2.386 7.78 2.906 4.391 5.902z" fill="#fff"/>
</svg>
